<svg width="20" height="20" viewBox="0 0 20 20" fill="none" xmlns="http://www.w3.org/2000/svg">
<path d="M3.26096 4.48903L15.511 16.739C15.6645 16.9079 15.8794 17 16.125 17C16.6009 17 17 16.6009 17 16.125C17 15.8794 16.9079 15.6645 16.739 15.511L4.48904 3.26096C4.33553 3.0921 4.12061 3 3.875 3C3.39912 3 3 3.39912 3 3.875C3 4.12061 3.09211 4.33553 3.26096 4.48903ZM15.511 3.26096L3.26096 15.511C3.09211 15.6645 3 15.8794 3 16.125C3 16.6009 3.39912 17 3.875 17C4.12061 17 4.33553 16.9079 4.48904 16.739L16.739 4.48903C16.9079 4.33553 17 4.12061 17 3.875C17 3.39912 16.6009 3 16.125 3C15.8794 3 15.6645 3.0921 15.511 3.26096Z" fill="#939AAE"/>
</svg>
