<svg width="24" height="24" viewBox="0 0 24 24" fill="none" xmlns="http://www.w3.org/2000/svg">
<path d="M3.35103 16.2173L2.04177 20.7052C1.82034 21.4663 2.51547 22.1759 3.27214 21.9611L7.73989 20.6858C11.5172 22.5964 16.1033 21.9361 19.1171 18.8935C22.9614 15.0134 22.9614 8.69117 19.1171 4.81113C15.2728 0.931076 8.70633 1.23737 5.28809 4.68692C1.86986 8.13647 1.50498 12.4168 3.35103 16.2173ZM17.7031 17.4665C15.1965 19.9971 11.336 20.5252 8.25383 18.7571C8.02157 18.6236 7.74605 18.5895 7.48869 18.6623L4.47106 19.5223L5.35496 16.4951C5.43126 16.2354 5.40096 15.9556 5.27076 15.7188C3.55682 12.6148 3.89364 8.94903 6.67861 6.13835C9.46358 3.32765 14.623 3.12944 17.7031 6.23838C20.7831 9.34728 20.7831 14.3578 17.7031 17.4665Z" fill="#939AAE"/>
</svg>
