<svg width="24" height="24" viewBox="0 0 24 24" fill="none" xmlns="http://www.w3.org/2000/svg">
<path d="M7.00652 4.40297H7.00639C6.61213 4.40263 6.2196 4.45308 5.83907 4.55298C4.88333 4.80785 4.04068 5.3595 3.43951 6.12265C2.78574 6.95468 2.43719 8.0102 2.43719 9.17998C2.43719 10.8925 3.57318 12.8852 5.88252 15.1059L5.88258 15.1059C7.87932 17.0281 10.2615 18.6136 11.5042 19.3865C11.7263 19.5243 11.9847 19.5977 12.249 19.5977C12.5132 19.5977 12.7716 19.5243 12.9937 19.3865C14.2366 18.6115 16.6167 17.026 18.6155 15.1058C20.9248 12.8851 22.0608 10.8925 22.0608 9.17998C22.0608 8.0104 21.7123 6.95686 21.0585 6.12274C20.4573 5.35953 19.6146 4.80784 18.6588 4.55297C16.9607 4.10517 14.5583 4.56641 12.9315 7.2594L7.00652 4.40297ZM7.00652 4.40297C8.52269 4.40297 10.2845 5.13693 11.5644 7.2594C11.6348 7.37623 11.7352 7.4726 11.855 7.53937C11.9749 7.60611 12.1103 7.64107 12.2479 7.64107C12.3855 7.64107 12.521 7.60611 12.6408 7.53937C12.7607 7.47263 12.861 7.37631 12.9314 7.25954L7.00652 4.40297ZM10.6501 20.6952L10.6503 20.6953L12.25 21L12.25 21.15C12.2501 21.15 12.2501 21.15 12.2501 21.15C12.8171 21.1498 13.3724 20.9914 13.8499 20.6932C15.1414 19.8877 17.626 18.2322 19.7311 16.2081L19.7311 16.2081C22.3113 13.7261 23.65 11.3612 23.65 9.17798C23.65 7.67255 23.1913 6.28834 22.3195 5.17894C21.493 4.12441 20.3262 3.37105 19.0069 3.03889C17.6879 2.70678 16.2922 2.81478 15.0437 3.34573C13.9812 3.78867 13.031 4.52318 12.2499 5.49178C11.4687 4.52548 10.5187 3.79104 9.45648 3.34579C8.20797 2.81479 6.81219 2.70677 5.49309 3.03889C4.17387 3.37103 3.00704 4.12435 2.18055 5.17882C1.30869 6.28823 0.85 7.67249 0.85 9.17798C0.85 11.3612 2.18872 13.727 4.76887 16.2101L4.76892 16.2101C6.874 18.2343 9.35973 19.8897 10.6501 20.6952Z" fill="#939AAE" stroke="#939AAE" stroke-width="0.3"/>
</svg>
