<svg width="218" height="48" viewBox="0 0 218 48" fill="none" xmlns="http://www.w3.org/2000/svg">
<g clip-path="url(#clip0_1_498)">
<path d="M81.1024 34.5677L71.9208 22.9291L81.2317 12.0016H75.7357L68.8818 20.1487V16.3015C68.9141 15.1376 68.4615 14.0384 67.6533 13.2302C66.845 12.4219 65.7458 11.9693 64.5819 12.0016H64V16.1398H64.7436V34.5677H68.8818V25.7741L75.8326 34.5677H81.1024Z" fill="white"/>
<path d="M100.098 30.4296V25.8387L100.066 25.5801C100.066 25.5478 100.066 25.5478 100.066 25.5478L100.098 25.4508C100.131 20.278 95.9924 16.0752 90.852 16.0752C87.425 16.0752 84.2244 17.9827 82.6079 21.1186C80.6358 24.9335 81.5734 29.589 84.8387 32.3694C86.5521 33.8242 88.7182 34.6001 90.852 34.6001C92.7594 34.6001 94.6992 33.9859 96.3157 32.7897L96.5743 32.5957L96.7683 32.8543C97.5442 33.9535 98.8374 34.6324 100.195 34.5678H100.777V30.4296H100.098ZM90.8196 30.4619C88.0393 30.3973 85.8409 28.1342 85.8732 25.3538C85.9055 22.5734 88.1686 20.3427 90.949 20.375C93.7293 20.4074 95.9601 22.6381 95.9601 25.4185C95.9278 28.2312 93.6323 30.4942 90.8196 30.4619Z" fill="white"/>
<path d="M113.466 16.8834H108.552V12.2603H104.414V28.0048C104.414 30.2679 106.192 34.5677 112.884 34.5677H113.466V30.4618H112.884C108.843 30.4618 108.552 28.4251 108.552 28.0048V21.0216H113.466V16.8834Z" fill="white"/>
<path d="M125.607 16.3015C124.412 16.3015 123.183 16.5602 122.116 17.0774L121.663 17.3037V16.5602C121.696 15.4286 121.275 14.3294 120.467 13.5212C119.659 12.7129 118.56 12.2603 117.428 12.2926H116.846V15.8166L116.879 16.4308H117.525V34.6001H121.663V24.3516C121.696 22.2178 123.474 20.472 125.607 20.472C127.741 20.472 129.487 22.2178 129.519 24.3516V34.6001H133.657V24.3516C133.657 19.8901 130.069 16.3015 125.607 16.3015Z" fill="white"/>
<path d="M155.633 30.4296V25.8387L155.601 25.5801C155.601 25.5478 155.601 25.5478 155.601 25.5478L155.633 25.4508C155.666 20.278 151.527 16.0752 146.387 16.0752C142.96 16.0752 139.76 17.9827 138.143 21.1186C136.171 24.9335 137.109 29.589 140.374 32.3694C142.087 33.8242 144.253 34.6001 146.387 34.6001C148.294 34.6001 150.234 33.9859 151.851 32.7897L152.109 32.5957L152.304 32.8543C153.079 33.9535 154.372 34.6324 155.73 34.5678H156.312V30.4296H155.633ZM146.355 30.4619C143.575 30.3973 141.376 28.1342 141.408 25.3538C141.44 22.5734 143.704 20.3427 146.484 20.375C149.264 20.4074 151.495 22.6381 151.495 25.4185C151.463 28.2312 149.167 30.4942 146.355 30.4619Z" fill="white"/>
<path d="M171.006 18.5645C169.842 17.4977 168.29 16.8834 166.705 16.8834C165.994 16.9158 165.348 17.3037 164.992 17.918L164.378 19.0172V16.9158H160.24V34.6001H164.378V23.3493C164.378 22.0562 165.412 21.0216 166.705 21.0216C167.255 21.0216 167.773 21.2479 168.193 21.6359L168.613 22.0238L171.426 18.9525L171.006 18.5645Z" fill="white"/>
<path d="M181.787 23.7372C179.718 23.22 178.198 22.832 177.875 21.9591C177.778 21.7651 177.778 21.5388 177.843 21.3449C178.036 20.7953 178.748 20.5689 180.106 20.5689C182.433 20.5689 184.502 21.0539 186.604 22.1208L189.772 19.89C187.703 17.7239 184.664 16.5601 181.69 16.5601C178.941 16.5601 175.321 17.336 174.222 19.5667C173.931 20.181 173.769 20.8276 173.704 21.5065C173.672 22.4117 173.866 23.2846 174.222 24.0929C175.126 26.0326 178.327 26.8732 180.881 27.5198C183.241 28.1341 185.084 28.619 185.181 29.8152C185.181 30.0739 185.149 30.3648 184.987 30.5911C184.599 31.2701 183.662 31.6257 182.369 31.6257C180.299 31.6257 178.327 30.8498 176.905 29.3626L173.542 31.7227C174.124 32.5309 174.868 33.2098 175.708 33.7595C177.552 34.891 179.653 35.5053 181.819 35.4729C185.278 35.4729 188.123 34.1151 189.126 32.0136C189.837 30.4618 189.74 28.6837 188.899 27.2288C187.574 25.1921 184.373 24.3838 181.787 23.7372Z" fill="white"/>
<path d="M197.915 15.7195V12.0016H193.68V15.7195H197.915ZM193.582 17.045H193V21.1832H193.712V34.5677H197.85V22.2178L197.882 21.8945V21.3126C197.915 20.181 197.43 19.0818 196.622 18.2736C195.813 17.4653 194.714 17.0127 193.582 17.045Z" fill="white"/>
<path d="M209.38 23.7372C207.312 23.22 205.792 22.832 205.468 21.9591C205.372 21.7651 205.372 21.5388 205.436 21.3449C205.631 20.7953 206.342 20.5689 207.699 20.5689C210.027 20.5689 212.097 21.0539 214.197 22.1208L217.366 19.89C215.297 17.7239 212.258 16.5601 209.284 16.5601C206.536 16.5601 202.914 17.336 201.815 19.5667C201.524 20.181 201.363 20.8276 201.298 21.5065C201.266 22.4117 201.46 23.2846 201.815 24.0929C202.721 26.0326 205.922 26.8732 208.475 27.5198C210.836 28.1341 212.678 28.619 212.775 29.8152C212.775 30.0739 212.743 30.3648 212.581 30.5911C212.193 31.2701 211.256 31.6257 209.962 31.6257C207.894 31.6257 205.922 30.8498 204.499 29.3626L201.137 31.7227C201.719 32.5309 202.462 33.2098 203.303 33.7595C205.145 34.891 207.247 35.5053 209.413 35.4729C212.872 35.4729 215.717 34.1151 216.719 32.0136C217.43 30.4618 217.334 28.6837 216.493 27.2288C215.167 25.1921 211.967 24.3838 209.38 23.7372Z" fill="white"/>
</g>
<g clip-path="url(#clip1_1_498)">
<path d="M18.4121 15.0848C17.5921 15.0848 16.8213 15.4072 16.2408 15.993C15.6604 16.5789 15.3418 17.3561 15.3418 18.1846C15.3418 19.013 15.6612 19.7902 16.2408 20.3761C16.8213 20.9612 17.5921 21.2835 18.4121 21.2835C19.232 21.2835 20.0036 20.9612 20.5833 20.3761C21.1629 19.791 21.4831 19.0122 21.4831 18.1846C21.4831 17.3569 21.1637 16.5781 20.5833 15.993C20.0036 15.4072 19.2328 15.0848 18.4121 15.0848Z" fill="white"/>
<path d="M26.5232 29.4708C26.5232 30.2984 26.8426 31.0764 27.423 31.6622C28.0211 32.2667 28.8073 32.5681 29.5943 32.5681C30.3812 32.5681 31.1666 32.2667 31.7655 31.6622C32.9624 30.4534 32.9624 28.4874 31.7655 27.2792C30.5678 26.0703 28.6199 26.0703 27.423 27.2792C26.8426 27.8643 26.5232 28.6431 26.5232 29.4708Z" fill="white"/>
<path d="M40.6739 6.96126C36.2178 2.47204 30.2961 0 24.0005 0C19.3241 0 14.8027 1.37861 10.9263 3.98704C10.5462 4.24276 10.3021 4.65192 10.2568 5.10994C10.2115 5.56481 10.3689 6.01193 10.689 6.33587C11.1966 6.85041 11.9981 6.93178 12.5946 6.53038C13.6618 5.81123 14.805 5.18974 15.9912 4.68372C18.5271 3.60112 21.2219 3.05247 24.0012 3.05247C26.7805 3.05247 29.4746 3.60112 32.0105 4.68372C34.4604 5.72909 36.6616 7.22705 38.5526 9.1357C40.4436 11.0444 41.9277 13.2653 42.9641 15.7389C44.0367 18.2993 44.5801 21.0193 44.5801 23.8238C44.5801 26.6283 44.0367 29.3483 42.9641 31.9079C41.9277 34.3815 40.4436 36.6033 38.5526 38.5119C36.6616 40.4206 34.4604 41.9185 32.0105 42.9639C29.4746 44.0465 26.7798 44.5951 24.0012 44.5951C21.2227 44.5951 18.5271 44.0465 15.9912 42.9639C13.5413 41.9185 11.3401 40.4206 9.44913 38.5119C7.55815 36.6033 6.07406 34.3807 5.03837 31.9079C3.9658 29.3507 3.42222 26.6306 3.42222 23.8238C3.42222 21.017 3.9658 18.297 5.03837 15.7389C5.52126 14.5858 6.11015 13.4738 6.78731 12.433C7.17042 11.8449 7.08442 11.0606 6.58309 10.5686L6.51322 10.4996C6.19922 10.1904 5.76926 10.0408 5.33242 10.0889C4.89864 10.1362 4.51242 10.3741 4.27367 10.7406C1.73699 14.6284 0.396484 19.1525 0.396484 23.8246C0.396484 30.1798 2.84564 36.1569 7.29326 40.6546C11.7401 45.1523 17.6565 47.6362 23.9506 47.6492C23.9674 47.6492 23.9828 47.6492 23.9997 47.6492C27.1667 47.6492 30.2454 47.0198 33.1491 45.7794C35.966 44.5758 38.4981 42.8516 40.6739 40.6554C42.8505 38.4585 44.5579 35.9035 45.7503 33.0602C46.9854 30.1139 47.609 26.9902 47.6028 23.7757C47.5899 17.4221 45.129 11.4512 40.6731 6.96278L40.6739 6.96126Z" fill="white"/>
<path d="M41.3088 29.2569L37.0861 33.0998C35.1152 34.893 32.5717 35.9314 29.9229 36.0252H29.9106C29.7885 36.0322 29.668 36.036 29.5521 36.036C25.9759 36.036 23.066 33.099 23.066 29.4894C23.066 27.8946 23.6449 26.3563 24.6952 25.1575L24.835 25.0002L25.5159 24.2446L25.5398 24.2168C26.177 23.4201 26.7052 22.501 27.0661 21.5587C27.4799 20.4815 27.6895 19.3439 27.6895 18.1784C27.6895 15.2484 26.3689 12.5408 24.0657 10.7507L23.952 10.6624L23.9375 10.6593C22.3313 9.45658 20.4265 8.8219 18.4188 8.8219C15.9942 8.8219 13.7355 9.70375 12.0525 11.3087C11.9819 11.3768 11.912 11.4458 11.8429 11.5156L11.8176 11.5411C8.57537 14.8206 6.78955 19.1781 6.78955 23.8114C6.78955 28.4448 8.57995 32.8139 11.8307 36.0949C15.0813 39.376 19.4031 41.1831 24.0004 41.1831C26.782 41.1831 29.5451 40.4973 31.9912 39.2001C33.6611 38.3151 35.1843 37.145 36.4865 35.7617H36.4872C36.4872 35.7617 38.2222 34.3177 41.3088 29.2561V29.2569ZM23.9996 38.3942C22.0495 38.3942 20.1578 38.009 18.3773 37.2488C16.6575 36.5149 15.112 35.4626 13.7846 34.1227C12.4572 32.7829 11.4145 31.2229 10.6875 29.4871C9.93431 27.69 9.55271 25.7806 9.55271 23.8122C9.55271 22.174 9.81835 20.5707 10.342 19.0456L10.3458 19.0355C11.0598 16.8293 12.514 15.0066 13.0353 14.3991L13.0614 14.4014L13.2664 14.1364C14.514 12.5237 16.3881 11.5993 18.4065 11.5993C22.0011 11.5993 24.9256 14.5518 24.9256 18.18C24.9256 19.919 24.2568 21.5595 23.0423 22.8009L22.8649 22.983V22.9884C21.8775 24.054 21.1397 25.3396 20.7167 26.7306L20.709 26.7368L20.6537 26.9321C20.4204 27.7613 20.3013 28.6215 20.3013 29.4902C20.3013 31.8661 21.1858 34.1297 22.7927 35.864C23.7685 36.9179 24.9539 37.7169 26.2591 38.2183C25.5159 38.336 24.7612 38.3949 23.9989 38.3949L23.9996 38.3942Z" fill="white"/>
</g>
<defs>
<clipPath id="clip0_1_498">
<rect width="153.366" height="24" fill="white" transform="translate(64 12)"/>
</clipPath>
<clipPath id="clip1_1_498">
<rect width="48" height="48" fill="white"/>
</clipPath>
</defs>
</svg>
