<svg width="311" height="82" viewBox="0 0 311 82" fill="none" xmlns="http://www.w3.org/2000/svg">
<path d="M194.177 23.8452C189.995 20.0359 184.42 17.8416 178.728 17.8416C176.172 17.9582 173.849 19.344 172.571 21.5363L170.364 25.4623V17.9582H155.496V81.106H170.364V40.9309C170.364 36.313 174.082 32.6204 178.728 32.6204C180.703 32.6204 182.561 33.4269 184.071 34.8126L185.581 36.1984L195.687 25.231L194.177 23.8452Z" fill="#A361F2"/>
<g clip-path="url(#clip0_2331_884)">
<path d="M32.5324 81.9145C35.4365 81.9145 61.5724 81.4519 67.2643 67.0211C67.8451 65.0601 68.3098 63.0971 68.3098 61.1341C69.2391 41.5081 46.007 36.1984 36.0173 34.0041C17.1995 29.7342 15.2247 24.6537 15.3409 21.0757C15.5732 14.9554 30.3256 14.7261 33.2294 14.7261C34.2749 14.7261 35.2042 14.8407 36.1335 14.8407C43.5678 15.418 50.6534 17.9582 56.81 22.2302L68.3098 12.6464C58.3199 4.79647 45.1938 0.0639648 32.4163 0.0639648C20.2196 0.0639648 0.123972 5.02777 0.472451 20.4985C0.0078125 34.4667 10.2299 43.3565 32.7648 48.435C51.3504 52.5923 53.6736 56.8622 53.4413 60.4422C53.3252 64.2516 45.31 66.6751 32.6486 66.6751C18.3611 66.6751 13.4824 61.7113 12.9015 61.0195L11.6238 59.4024L0.0078125 67.4837C3.72492 72.1016 8.3713 75.6796 13.7147 78.2198C19.4065 80.8747 25.7953 82.1458 32.068 81.9145H32.5324Z" fill="#A361F2"/>
<path d="M137.989 66.3292V18.0729H123.12V52.4756C123.236 57.5561 120.565 62.174 116.151 64.7122C113.944 65.9833 111.504 66.5605 109.065 66.5605C106.626 66.5605 104.186 65.9833 101.979 64.7122C97.5651 62.174 94.8934 57.5561 95.0096 52.4756V18.0729H80.1411V52.4756C80.1411 68.4069 93.0348 81.2227 109.065 81.2227C114.989 81.2227 120.797 79.3743 125.56 76.0276L126.373 75.4504L127.07 76.2568C129.974 79.491 134.039 81.2227 138.337 81.106H140.428V66.3292H137.989Z" fill="#A361F2"/>
<path d="M237.909 17.8416H220.252V1.33307H205.384V57.5561C205.384 65.6374 211.772 80.9914 235.818 80.9914H237.909V66.3292H235.818C221.298 66.3292 220.252 59.0565 220.252 57.5561V32.6204H237.909V17.8416Z" fill="#A361F2"/>
<path d="M308.599 66.3292V18.0729H293.73V52.4756C293.846 57.5561 291.174 62.174 286.761 64.7122C284.553 65.9833 282.114 66.5605 279.676 66.5605C277.235 66.5605 274.796 65.9833 272.588 64.7122C268.175 62.174 265.503 57.5561 265.619 52.4756V18.0729H250.75V52.4756C250.75 68.4069 263.644 81.2227 279.676 81.2227C285.599 81.2227 291.407 79.3743 296.169 76.0276L296.982 75.4504L297.679 76.2568C300.583 79.491 304.648 81.2227 308.947 81.106H311.037V66.3292H308.599Z" fill="#A361F2"/>
</g>
<defs>
<clipPath id="clip0_2331_884">
<rect width="311" height="82" fill="white"/>
</clipPath>
</defs>
</svg>
