<svg width="532" height="181" viewBox="0 0 532 181" fill="none" xmlns="http://www.w3.org/2000/svg">
<path d="M415.177 72.8452C410.995 69.0359 405.42 66.8416 399.728 66.8416C397.172 66.9582 394.849 68.344 393.571 70.5363L391.364 74.4623V66.9582H376.496V130.106H391.364V89.9309C391.364 85.313 395.082 81.6204 399.728 81.6204C401.703 81.6204 403.561 82.4269 405.071 83.8126L406.581 85.1984L416.687 74.231L415.177 72.8452Z" fill="white"/>
<g clip-path="url(#clip0_2331_884)">
<path d="M253.532 130.915C256.436 130.915 282.572 130.452 288.264 116.021C288.845 114.06 289.31 112.097 289.31 110.134C290.239 90.5081 267.007 85.1984 257.017 83.0041C238.199 78.7342 236.225 73.6537 236.341 70.0757C236.573 63.9554 251.326 63.7261 254.229 63.7261C255.275 63.7261 256.204 63.8407 257.133 63.8407C264.568 64.418 271.653 66.9582 277.81 71.2302L289.31 61.6464C279.32 53.7965 266.194 49.064 253.416 49.064C241.22 49.064 221.124 54.0278 221.472 69.4985C221.008 83.4667 231.23 92.3565 253.765 97.435C272.35 101.592 274.674 105.862 274.441 109.442C274.325 113.252 266.31 115.675 253.649 115.675C239.361 115.675 234.482 110.711 233.902 110.019L232.624 108.402L221.008 116.484C224.725 121.102 229.371 124.68 234.715 127.22C240.406 129.875 246.795 131.146 253.068 130.915H253.532Z" fill="white"/>
<path d="M358.989 115.329V67.0729H344.12V101.476C344.236 106.556 341.565 111.174 337.151 113.712C334.944 114.983 332.504 115.561 330.065 115.561C327.626 115.561 325.186 114.983 322.979 113.712C318.565 111.174 315.893 106.556 316.01 101.476V67.0729H301.141V101.476C301.141 117.407 314.035 130.223 330.065 130.223C335.989 130.223 341.797 128.374 346.56 125.028L347.373 124.45L348.07 125.257C350.974 128.491 355.039 130.223 359.337 130.106H361.428V115.329H358.989Z" fill="white"/>
<path d="M458.909 66.8416H441.252V50.3331H426.384V106.556C426.384 114.637 432.772 129.991 456.818 129.991H458.909V115.329H456.818C442.298 115.329 441.252 108.056 441.252 106.556V81.6204H458.909V66.8416Z" fill="white"/>
<path d="M529.599 115.329V67.0729H514.73V101.476C514.846 106.556 512.174 111.174 507.761 113.712C505.553 114.983 503.114 115.561 500.676 115.561C498.235 115.561 495.796 114.983 493.588 113.712C489.175 111.174 486.503 106.556 486.619 101.476V67.0729H471.75V101.476C471.75 117.407 484.644 130.223 500.676 130.223C506.599 130.223 512.407 128.374 517.169 125.028L517.982 124.45L518.679 125.257C521.583 128.491 525.648 130.223 529.947 130.106H532.037V115.329H529.599Z" fill="white"/>
</g>
<g clip-path="url(#clip1_2331_884)">
<mask id="mask0_2331_884" style="mask-type:alpha" maskUnits="userSpaceOnUse" x="5" y="5" width="192" height="192">
<circle cx="101" cy="101" r="96" fill="url(#paint0_linear_2331_884)"/>
</mask>
<g mask="url(#mask0_2331_884)">
<path d="M131.878 172C122.84 170.079 115.715 167.497 111.628 161.34C106.534 153.647 97.6611 127.752 92.9608 84.15C99.7082 90.7951 107.456 106.447 109.203 110.935C109.432 111.518 110.274 111.793 110.542 110.919C116.439 91.9367 105.637 83.7564 97.5982 80.5441C121.651 77.6546 137.98 90.8029 142.791 94.5585C143.295 94.9522 143.877 94.5585 143.956 93.9208C144.657 88.3937 144.413 71.8441 124.651 66.3486C115.242 63.7346 102.228 68.0492 95.2126 73.2534C107.211 57.0975 126.58 48.2007 131.012 46.9488C131.359 46.8465 131.414 46.3977 131.115 46.193C124.147 41.5084 110.416 37.0915 96.9683 48.0038C89.6619 53.9245 88.8903 65.4431 89.7249 70.8048C87.0322 59.672 80.3242 44.8939 64.9241 41.8706C42.5089 37.4694 31.2186 53.4049 28.959 61.3727C28.8802 61.6561 29.1322 61.8923 29.4077 61.8136C32.2185 61.0184 41.131 57.4675 57.7909 60.6798C70.9078 63.2071 77.6315 68.3484 82.8279 73.8439C74.9782 69.7026 64.3572 68.8759 52.6418 78.0168C39.4698 88.2914 40.2177 99.2352 40.6429 103.211C40.7138 103.849 41.446 104.148 41.9499 103.747C46.8707 99.7942 64.9398 83.6776 84.2057 82.1266C80.1589 83.6304 75.8994 85.8034 71.6006 91.11C62.4676 102.377 69.2623 115.564 73.2776 119.54C73.5768 119.84 74.0964 119.666 74.1673 119.249C74.9074 114.824 81.6233 94.2436 88.725 84.5358C88.5045 95.6293 85.678 129.406 92.9372 162.773C94.2835 168.969 89.158 170.717 86.5441 172.008H131.878V172Z" fill="white"/>
</g>
</g>
<path d="M5 89V92C5 138.116 42.3842 175.5 88.5 175.5C134.616 175.5 172 138.116 172 92V89C172 42.8842 134.616 5.5 88.5 5.5C42.3842 5.5 5 42.8842 5 89Z" stroke="white" stroke-width="10"/>
<defs>
<linearGradient id="paint0_linear_2331_884" x1="101" y1="5" x2="101" y2="197" gradientUnits="userSpaceOnUse">
<stop stop-color="#57B8EA"/>
<stop offset="1" stop-color="#2765D9"/>
</linearGradient>
<clipPath id="clip0_2331_884">
<rect width="311" height="82" fill="white" transform="translate(221 49)"/>
</clipPath>
<clipPath id="clip1_2331_884">
<rect x="5" y="5" width="167" height="167" rx="83.5" fill="white"/>
</clipPath>
</defs>
</svg>
