<?xml version="1.0" encoding="UTF-8"?>
<svg version="1.1" viewBox="0 0 700 700" xmlns="http://www.w3.org/2000/svg">
 <path d="m598.89 497.78v-435.55c0-17.184-13.93-31.113-31.113-31.113h-435.55c-17.184 0-31.113 13.93-31.113 31.113v435.55l115.95-144.94c4.8633-6.082 13.473-7.6289 20.152-3.625l66.117 39.676 127.21-98.941c6.7812-5.2773 16.555-4.0547 21.828 2.7266 0.13281 0.16797 0.25781 0.33594 0.37891 0.50781zm-466.67-497.78h435.55c34.363 0 62.223 27.859 62.223 62.223v435.55c0 34.363-27.859 62.223-62.223 62.223h-435.55c-34.363 0-62.223-27.859-62.223-62.223v-435.55c0-34.363 27.859-62.223 62.223-62.223zm164.24 421.05-63.602-38.16-115.75 141.95c5.0391 2.6992 10.109 4.0508 15.215 4.0508h435.57c7.1367-0.48438 12.273-1.9102 15.414-4.2773l-146.46-200.16-122.83 95.539c-5.0703 3.9414-12.043 4.3633-17.555 1.0586zm-55.355-172.16c-42.953 0-77.777-34.824-77.777-77.781 0-42.953 34.824-77.777 77.777-77.777 42.957 0 77.781 34.824 77.781 77.777 0 42.957-34.824 77.781-77.781 77.781zm0-31.113c25.773 0 46.668-20.895 46.668-46.668s-20.895-46.664-46.668-46.664-46.664 20.891-46.664 46.664 20.891 46.668 46.664 46.668z" fill="#9548ed"/>
</svg>
