<?xml version="1.0" standalone="no"?>
<!DOCTYPE svg PUBLIC "-//W3C//DTD SVG 20010904//EN"
 "http://www.w3.org/TR/2001/REC-SVG-20010904/DTD/svg10.dtd">
<svg version="1.0" xmlns="http://www.w3.org/2000/svg"
 width="191.000000pt" height="191.000000pt" viewBox="0 0 191.000000 191.000000"
 preserveAspectRatio="xMidYMid meet">
<metadata>
Created by potrace 1.14, written by Peter Selinger 2001-2017
</metadata>
<g transform="translate(0.000000,191.000000) scale(0.100000,-0.100000)"
fill="#000000" stroke="none">
<path d="M790 1895 c-132 -26 -321 -107 -362 -157 -23 -26 -23 -61 0 -81 28
-25 53 -21 128 23 134 76 278 111 439 104 538 -21 909 -551 751 -1073 -80
-265 -308 -486 -571 -556 -324 -86 -669 33 -872 300 -189 249 -217 594 -72
882 54 109 58 126 29 150 -48 42 -77 22 -138 -94 -72 -139 -113 -323 -105
-477 21 -435 331 -805 748 -891 448 -92 892 145 1066 569 56 137 72 231 66
394 -3 76 -8 149 -11 163 -87 379 -368 661 -736 739 -100 21 -265 23 -360 5z"/>
<path d="M660 1549 c-100 -23 -169 -70 -246 -170 -96 -125 -143 -273 -139
-434 3 -100 5 -112 23 -176 46 -160 149 -302 287 -394 199 -132 461 -147 680
-39 125 61 217 150 341 329 54 78 47 74 -79 -39 -95 -86 -134 -110 -220 -137
-206 -64 -378 46 -380 242 -1 75 18 121 82 198 98 118 123 257 71 396 -31 82
-124 174 -206 205 -63 24 -157 32 -214 19z m186 -129 c133 -65 189 -230 120
-356 -15 -27 -40 -64 -57 -82 -73 -78 -111 -212 -90 -316 7 -33 22 -80 34
-105 25 -54 111 -142 157 -161 28 -12 30 -15 14 -21 -37 -13 -172 1 -244 25
-200 68 -339 227 -387 441 -24 109 -3 260 51 370 97 195 255 276 402 205z"/>
<path d="M685 1292 c-39 -20 -49 -31 -63 -69 -28 -82 31 -163 120 -163 48 0
105 47 114 95 18 100 -84 183 -171 137z"/>
<path d="M1155 852 c-34 -8 -63 -32 -79 -67 -20 -41 -20 -68 -1 -109 20 -41
63 -66 115 -66 34 0 48 6 76 34 19 19 34 42 35 53 0 10 2 27 4 38 5 28 -34 92
-64 105 -34 14 -61 18 -86 12z"/>
</g>
</svg>
