<svg width="24" height="24" viewBox="0 0 24 24" fill="none" xmlns="http://www.w3.org/2000/svg">
<path d="M19.705 21.991C19.6022 21.991 19.3761 21.991 19.2733 21.8909H19.1705L12.4897 19.1694L5.8295 21.8909C5.39782 22.091 4.86336 21.991 4.53446 21.7909C4.20556 21.5908 4 21.1705 4 20.7503V6.08224C4 3.78098 5.8295 2 8.19347 2H16.8065C19.1705 2 21 3.78098 21 6.08224V20.7503C21 21.1705 20.7944 21.5908 20.4655 21.7909C20.2394 21.8909 19.9105 21.991 19.705 21.991ZM8.19347 3.98109C7.12455 3.98109 6.1584 4.9216 6.1584 5.96218V19.4696L12.4897 16.8682L18.8416 19.4896V5.96218C18.8416 4.9216 17.8755 3.98109 16.8065 3.98109H8.19347Z" fill="#939AAE"/>
</svg>
