<svg width="24" height="24" viewBox="0 0 24 24" fill="none" xmlns="http://www.w3.org/2000/svg">
<path fill-rule="evenodd" clip-rule="evenodd" d="M22.0183 2.29719C22.3435 2.74843 22.3726 3.34403 22.1742 3.93951L16.5045 20.9483C16.2379 21.7485 15.604 22.2999 14.8163 22.2999C14.3054 22.2999 13.8268 22.0704 13.4304 21.674C13.3657 21.6093 13.3114 21.5349 13.2694 21.4535L9.62193 14.3778L2.54622 10.7305C2.46494 10.6885 2.39043 10.6342 2.32566 10.5693C1.83142 10.075 1.59576 9.4339 1.74331 8.80904C1.89086 8.18424 2.38831 7.71634 3.05139 7.49533L20.0602 1.82576C20.3052 1.74405 20.5487 1.69995 20.7831 1.69995C21.2863 1.69995 21.7349 1.90412 22.0183 2.29719ZM19.8031 5.44952L17.3211 12.8955L14.8235 20.3881C14.8092 20.4309 14.7923 20.469 14.7756 20.4988L14.7681 20.4936L14.3301 19.644L11.3635 13.8891L19.8031 5.44952ZM10.1106 12.6362L18.55 4.19685L3.61171 9.17629C3.56527 9.19178 3.52831 9.20859 3.50068 9.22406L3.50599 9.23172L10.1106 12.6362Z" fill="#939AAE"/>
</svg>
