<svg xmlns="http://www.w3.org/2000/svg">
    <symbol id="icon-ar" viewBox="0 0 24 24">
        <g>
            <path fill-rule="evenodd" clip-rule="evenodd" d="M13.8857 6.01921C14.7047 5.91093 15.0407 6.26032 14.8935 7.06735C13.1869 8.868 11.4804 10.6686 9.77377 12.4693C11.4951 14.2577 13.2017 16.0584 14.8935 17.8712C15.137 18.4862 14.9354 18.8624 14.2888 19C14.1438 18.9938 14.0094 18.9535 13.8857 18.8791C11.9347 16.9013 10.0132 14.8991 8.12094 12.8724C7.95969 12.6037 7.95969 12.3349 8.12094 12.0662C10.0295 10.0367 11.9512 8.021 13.8857 6.01921Z"/>
        </g>
    </symbol>
    <symbol id="icon-cl" viewBox="0 0 20 20">
        <g>
            <path d="M3.26096 4.48903L15.511 16.739C15.6645 16.9079 15.8794 17 16.125 17C16.6009 17 17 16.6009 17 16.125C17 15.8794 16.9079 15.6645 16.739 15.511L4.48904 3.26096C4.33553 3.0921 4.12061 3 3.875 3C3.39912 3 3 3.39912 3 3.875C3 4.12061 3.09211 4.33553 3.26096 4.48903ZM15.511 3.26096L3.26096 15.511C3.09211 15.6645 3 15.8794 3 16.125C3 16.6009 3.39912 17 3.875 17C4.12061 17 4.33553 16.9079 4.48904 16.739L16.739 4.48903C16.9079 4.33553 17 4.12061 17 3.875C17 3.39912 16.6009 3 16.125 3C15.8794 3 15.6645 3.0921 15.511 3.26096Z"/>
        </g>
    </symbol>
    <symbol id="icon-co" viewBox="0 0 24 24">
        <g>
            <path d="M3.35103 16.2173L2.04177 20.7052C1.82034 21.4663 2.51547 22.1759 3.27214 21.9611L7.73989 20.6858C11.5172 22.5964 16.1033 21.9361 19.1171 18.8935C22.9614 15.0134 22.9614 8.69117 19.1171 4.81113C15.2728 0.931076 8.70633 1.23737 5.28809 4.68692C1.86986 8.13647 1.50498 12.4168 3.35103 16.2173ZM17.7031 17.4665C15.1965 19.9971 11.336 20.5252 8.25383 18.7571C8.02157 18.6236 7.74605 18.5895 7.48869 18.6623L4.47106 19.5223L5.35496 16.4951C5.43126 16.2354 5.40096 15.9556 5.27076 15.7188C3.55682 12.6148 3.89364 8.94903 6.67861 6.13835C9.46358 3.32765 14.623 3.12944 17.7031 6.23838C20.7831 9.34728 20.7831 14.3578 17.7031 17.4665Z"/>
        </g>
    </symbol>
    <symbol id="icon-li" viewBox="0 0 24 24">
        <g>
            <path d="M10.65 20.15L8.925 18.575C7.15833 16.9583 5.56267 15.354 4.138 13.762C2.71267 12.1707 2 10.4167 2 8.5C2 6.93333 2.525 5.625 3.575 4.575C4.625 3.525 5.93333 3 7.5 3C8.38333 3 9.21667 3.18733 10 3.562C10.7833 3.93733 11.45 4.45 12 5.1C12.55 4.45 13.2167 3.93733 14 3.562C14.7833 3.18733 15.6167 3 16.5 3C18.0667 3 19.375 3.525 20.425 4.575C21.475 5.625 22 6.93333 22 8.5C22 10.4167 21.2917 12.175 19.875 13.775C18.4583 15.375 16.85 16.9833 15.05 18.6L13.35 20.15C12.9667 20.5167 12.5167 20.7 12 20.7C11.4833 20.7 11.0333 20.5167 10.65 20.15ZM11.05 7.1C10.5667 6.41667 10.05 5.89567 9.5 5.537C8.95 5.179 8.28333 5 7.5 5C6.5 5 5.66667 5.33333 5 6C4.33333 6.66667 4 7.5 4 8.5C4 9.36667 4.30833 10.2873 4.925 11.262C5.54167 12.2373 6.27933 13.1833 7.138 14.1C7.996 15.0167 8.87933 15.875 9.788 16.675C10.696 17.475 11.4333 18.1333 12 18.65C12.5667 18.1333 13.3043 17.475 14.213 16.675C15.121 15.875 16.0043 15.0167 16.863 14.1C17.721 13.1833 18.4583 12.2373 19.075 11.262C19.6917 10.2873 20 9.36667 20 8.5C20 7.5 19.6667 6.66667 19 6C18.3333 5.33333 17.5 5 16.5 5C15.7167 5 15.05 5.179 14.5 5.537C13.95 5.89567 13.4333 6.41667 12.95 7.1C12.8333 7.26667 12.6917 7.39167 12.525 7.475C12.3583 7.55833 12.1833 7.6 12 7.6C11.8167 7.6 11.6417 7.55833 11.475 7.475C11.3083 7.39167 11.1667 7.26667 11.05 7.1Z"/>
        </g>
    </symbol>
    <symbol id="icon-lo" viewBox="0 0 24 24">
        <g>
            <path d="M15 3H19C19.5304 3 20.0391 3.21071 20.4142 3.58579C20.7893 3.96086 21 4.46957 21 5V19C21 19.5304 20.7893 20.0391 20.4142 20.4142C20.0391 20.7893 19.5304 21 19 21H15M10 17L15 12M15 12L10 7M15 12L3 12" stroke-width="2" stroke-linecap="round" stroke-linejoin="round"/>
        </g>
    </symbol>
    <symbol id="icon-sa" viewBox="0 0 24 24">
        <g>
            <path d="M19.705 21.991C19.6022 21.991 19.3761 21.991 19.2733 21.8909H19.1705L12.4897 19.1694L5.8295 21.8909C5.39782 22.091 4.86336 21.991 4.53446 21.7909C4.20556 21.5908 4 21.1705 4 20.7503V6.08224C4 3.78098 5.8295 2 8.19347 2H16.8065C19.1705 2 21 3.78098 21 6.08224V20.7503C21 21.1705 20.7944 21.5908 20.4655 21.7909C20.2394 21.8909 19.9105 21.991 19.705 21.991ZM8.19347 3.98109C7.12455 3.98109 6.1584 4.9216 6.1584 5.96218V19.4696L12.4897 16.8682L18.8416 19.4896V5.96218C18.8416 4.9216 17.8755 3.98109 16.8065 3.98109H8.19347Z"/>
        </g>
    </symbol>
    <symbol id="icon-se" viewBox="0 0 24 24">
        <g>
            <path fill-rule="evenodd" clip-rule="evenodd" d="M22.0183 2.29719C22.3435 2.74843 22.3726 3.34403 22.1742 3.93951L16.5045 20.9483C16.2379 21.7485 15.604 22.2999 14.8163 22.2999C14.3054 22.2999 13.8268 22.0704 13.4304 21.674C13.3657 21.6093 13.3114 21.5349 13.2694 21.4535L9.62193 14.3778L2.54622 10.7305C2.46494 10.6885 2.39043 10.6342 2.32566 10.5693C1.83142 10.075 1.59576 9.4339 1.74331 8.80904C1.89086 8.18424 2.38831 7.71634 3.05139 7.49533L20.0602 1.82576C20.3052 1.74405 20.5487 1.69995 20.7831 1.69995C21.2863 1.69995 21.7349 1.90412 22.0183 2.29719ZM19.8031 5.44952L17.3211 12.8955L14.8235 20.3881C14.8092 20.4309 14.7923 20.469 14.7756 20.4988L14.7681 20.4936L14.3301 19.644L11.3635 13.8891L19.8031 5.44952ZM10.1106 12.6362L18.55 4.19685L3.61171 9.17629C3.56527 9.19178 3.52831 9.20859 3.50068 9.22406L3.50599 9.23172L10.1106 12.6362Z"/>
        </g>
    </symbol>
    <symbol id="icon-fo" viewBox="0 0 20 20">
        <g>
            <path d="M9.61988 2C6.99278 2 4.84383 4.06936 4.84383 6.59734C4.84383 8.14309 5.64967 9.51192 6.87475 10.3447C4.02299 11.4448 2.00025 14.1288 2.00025 17.2597C1.97748 18.2468 3.52784 18.2468 3.50507 17.2597C3.50507 13.9364 6.28971 11.2582 9.74332 11.2582C10.9489 11.2582 12.0679 11.5889 13.0204 12.1561C13.8767 12.6615 14.6644 11.4256 13.8081 10.9203C13.3793 10.6649 12.9146 10.4658 12.4355 10.2938C13.6181 9.45671 14.3915 8.11236 14.3915 6.59734C14.3915 4.06936 12.247 2 9.61988 2ZM9.61988 3.44949C11.4337 3.44949 12.8867 4.85193 12.8867 6.59734C12.8867 8.34274 11.4337 9.73942 9.61988 9.73942C7.80605 9.73942 6.34865 8.34274 6.34865 6.59734C6.34865 4.85193 7.80605 3.44949 9.61988 3.44949ZM14.2357 15.7692V17.2173C14.2575 18.1615 15.7188 18.1615 15.7406 17.2173V15.7692H17.2469C18.251 15.7692 18.251 14.3198 17.2469 14.3198H15.7406V12.8717C15.7455 12.4658 15.4027 12.1352 14.9808 12.1392C14.5647 12.1419 14.2309 12.4713 14.2357 12.8717V14.3198H12.6949C11.6547 14.3661 11.7267 15.8154 12.7309 15.7692H14.2357Z"/>
        </g>
    </symbol>
    <symbol id="icon-me" viewBox="0 0 19 16">
        <g>
            <path d="M1.5 4.00005L8.03194 8.57241C8.56087 8.94266 8.82534 9.12779 9.11301 9.1995C9.36712 9.26284 9.63288 9.26284 9.88699 9.1995C10.1747 9.12779 10.4391 8.94266 10.9681 8.57241L17.5 4.00005M5.34 14.4001H13.66C15.0041 14.4001 15.6762 14.4001 16.1896 14.1385C16.6412 13.9084 17.0083 13.5412 17.2384 13.0896C17.5 12.5762 17.5 11.9042 17.5 10.5601V5.44005C17.5 4.09593 17.5 3.42386 17.2384 2.91047C17.0083 2.45889 16.6412 2.09173 16.1896 1.86164C15.6762 1.60005 15.0041 1.60005 13.66 1.60005H5.34C3.99587 1.60005 3.32381 1.60005 2.81042 1.86164C2.35883 2.09173 1.99168 2.45889 1.76158 2.91047C1.5 3.42386 1.5 4.09593 1.5 5.44005V10.5601C1.5 11.9042 1.5 12.5762 1.76158 13.0896C1.99168 13.5412 2.35883 13.9084 2.81042 14.1385C3.32381 14.4001 3.99587 14.4001 5.34 14.4001Z"  stroke-width="1.5" stroke-linecap="round" fill="none" stroke-linejoin="round"/>
        </g>
    </symbol>
    <symbol id="icon-do" viewBox="0 0 20 4">
        <g>
            <path d="M2 4C3.10457 4 4 3.10457 4 2C4 0.895428 3.10457 -2.86102e-06 2 -2.86102e-06C0.895431 -2.86102e-06 0 0.895428 0 2C0 3.10457 0.895431 4 2 4Z"/>
            <path d="M10 4C11.1046 4 12 3.10457 12 2C12 0.895428 11.1046 -2.86102e-06 10 -2.86102e-06C8.89543 -2.86102e-06 8 0.895428 8 2C8 3.10457 8.89543 4 10 4Z"/>
            <path d="M18 4C19.1046 4 20 3.10457 20 2C20 0.895428 19.1046 -2.86102e-06 18 -2.86102e-06C16.8954 -2.86102e-06 16 0.895428 16 2C16 3.10457 16.8954 4 18 4Z"/>
        </g>
    </symbol>
    <symbol id="icon-pl" viewBox="0 0 14 14">
        <g>
            <path fill-rule="evenodd" clip-rule="evenodd" d="M0 1.00154V13.0015C0 13.7788 0.84797 14.259 1.5145 13.859L11.5145 7.859C12.1618 7.4706 12.1618 6.5325 11.5145 6.1441L1.5145 0.14405C0.84797 -0.25586 0 0.22425 0 1.00154z"/>
        </g>
    </symbol>
    <symbol id="icon-pa" viewBox="0 0 24 24">
        <g>
            <path d="M19,4V20a2,2,0,0,1-2,2H15a2,2,0,0,1-2-2V4a2,2,0,0,1,2-2h2A2,2,0,0,1,19,4ZM9,2H7A2,2,0,0,0,5,4V20a2,2,0,0,0,2,2H9a2,2,0,0,0,2-2V4A2,2,0,0,0,9,2Z" />
        </g>
    </symbol>
    <symbol id="icon-play" viewBox="0 0 34 42">
        <g>
            <path d="M0 4.32666C0 1.162 3.50098 -0.749367 6.16303 0.961949L32.0993 17.6353C34.5486 19.2098 34.5486 22.7902 32.0993 24.3647L6.16303 41.0381C3.50098 42.7494 0 40.838 0 37.6733V4.32666Z" fill="white"/>
        </g>
    </symbol>
</svg>